<svg width="66" height="66" viewBox="0 0 66 66" fill="none" xmlns="http://www.w3.org/2000/svg">
<path d="M18.7582 27.658C18.7582 28.4624 18.8448 29.1146 18.9979 29.5916C19.1712 30.069 19.3888 30.5909 19.6925 31.155C19.7992 31.3282 19.8436 31.5015 19.8436 31.6546C19.8436 31.8701 19.7126 32.0877 19.4311 32.3048L18.0631 33.2175C17.8677 33.3464 17.6723 33.4129 17.4995 33.4129C17.2819 33.4129 17.0644 33.3041 16.8468 33.1087C16.5547 32.7936 16.293 32.4518 16.0651 32.0877C15.8235 31.67 15.5992 31.2425 15.3927 30.8064C13.7004 32.8044 11.5719 33.8037 9.00926 33.8037C7.18652 33.8037 5.73246 33.2819 4.66718 32.2403C3.60345 31.1972 3.06152 29.8076 3.06152 28.071C3.06152 26.2261 3.71224 24.7277 5.03791 23.6C6.36101 22.4698 8.11929 21.9057 10.3571 21.9057C11.0944 21.9057 11.8534 21.9701 12.6568 22.0789C13.4612 22.1877 14.2867 22.361 15.155 22.5564V20.9714C15.155 19.3214 14.8064 18.1715 14.1341 17.4991C13.438 16.8262 12.2659 16.4999 10.5943 16.4999C9.83477 16.4999 9.0536 16.5865 8.24974 16.7819C7.45163 16.9721 6.66812 17.219 5.9052 17.5208C5.55663 17.6719 5.29676 17.7585 5.14568 17.8028C4.99305 17.8451 4.88426 17.8673 4.79763 17.8673C4.49341 17.8673 4.34234 17.6497 4.34234 17.1949V16.1312C4.34234 15.7826 4.38462 15.5227 4.49341 15.3701C4.6017 15.219 4.79763 15.068 5.10185 14.9148C5.86085 14.524 6.77351 14.1981 7.83673 13.9377C8.90046 13.6557 10.0302 13.5252 11.2244 13.5252C13.8066 13.5252 15.6959 14.111 16.9128 15.2835C18.1069 16.4555 18.7133 18.236 18.7133 20.6249V27.658H18.7582ZM9.94409 30.9595C10.6593 30.9595 11.3981 30.8286 12.1798 30.5687C12.9615 30.3068 13.6561 29.8298 14.2423 29.1791C14.5888 28.7666 14.8508 28.3108 14.9797 27.7895C15.1106 27.2677 15.1973 26.6396 15.1973 25.8997V24.9896C14.5396 24.828 13.8731 24.7043 13.2013 24.6189C12.5238 24.5335 11.8417 24.4904 11.1589 24.49C9.70484 24.49 8.6411 24.772 7.92387 25.3583C7.2087 25.944 6.86065 26.768 6.86065 27.8539C6.86065 28.8749 7.12052 29.6344 7.66399 30.1557C8.1858 30.6976 8.94532 30.9595 9.94409 30.9595ZM27.3769 33.3041C26.986 33.3041 26.7261 33.2396 26.5529 33.0865C26.3776 32.9555 26.2265 32.6534 26.0955 32.2409L20.9939 15.4583C20.865 15.0236 20.798 14.7416 20.798 14.5884C20.798 14.2419 20.9718 14.047 21.3203 14.047H23.4473C23.8598 14.047 24.1418 14.111 24.295 14.2641C24.4682 14.393 24.5992 14.6972 24.7281 15.1097L28.3756 29.4833L31.7633 15.1102C31.8705 14.6771 32.0015 14.3935 32.1742 14.2646C32.3495 14.1331 32.6538 14.0465 33.0446 14.0465H34.7807C35.1932 14.0465 35.4758 14.111 35.649 14.2641C35.8223 14.393 35.9754 14.6972 36.0615 15.1097L39.492 29.6565L43.2483 15.1102C43.3772 14.6771 43.5304 14.3935 43.6814 14.2646C43.8547 14.1331 44.1388 14.0465 44.5291 14.0465H46.5473C46.8958 14.0465 47.0913 14.2198 47.0913 14.5884C47.0913 14.6967 47.0691 14.806 47.0469 14.937C47.0247 15.068 46.9825 15.2412 46.8958 15.4784L41.6633 32.2625C41.5323 32.6956 41.3812 32.9777 41.2059 33.1081C41.0327 33.2396 40.7506 33.3263 40.3819 33.3263H38.5154C38.1024 33.3263 37.8203 33.2592 37.6471 33.1087C37.4718 32.9555 37.3207 32.6735 37.2341 32.2403L33.8686 18.236L30.5247 32.2182C30.4165 32.6534 30.2876 32.9354 30.1122 33.0865C29.9385 33.2396 29.6348 33.3041 29.2439 33.3041H27.3769ZM55.2747 33.8903C54.1471 33.8903 53.0168 33.7594 51.9314 33.4995C50.8455 33.2396 49.9999 32.9555 49.4358 32.6312C49.0872 32.4358 48.8495 32.2187 48.7629 32.0228C48.6773 31.8313 48.6327 31.624 48.6319 31.4143V30.3067C48.6319 29.852 48.8052 29.6344 49.1321 29.6344C49.261 29.6344 49.3915 29.6565 49.5224 29.7009C49.6513 29.7432 49.8468 29.8298 50.0638 29.9164C50.8313 30.2535 51.6322 30.5086 52.4532 30.6775C53.321 30.8507 54.1672 30.9374 55.037 30.9374C56.405 30.9374 57.4682 30.6976 58.2056 30.2206C58.9444 29.7432 59.3353 29.0481 59.3353 28.1581C59.3353 27.5497 59.1399 27.0521 58.7495 26.6391C58.3587 26.2266 57.6193 25.8574 56.5561 25.5094L53.4077 24.5323C51.8226 24.0326 50.6501 23.2958 49.9354 22.3187C49.2187 21.3622 48.8495 20.2985 48.8495 19.1708C48.8495 18.2581 49.0455 17.4548 49.4358 16.7597C49.8234 16.0613 50.3564 15.4541 50.9987 14.9793C51.6494 14.4817 52.3888 14.111 53.2571 13.8511C54.1249 13.5912 55.037 13.4824 55.992 13.4824C56.4694 13.4824 56.9686 13.5046 57.446 13.569C57.9457 13.6335 58.401 13.7201 58.8578 13.8067C59.2909 13.9155 59.704 14.0243 60.0948 14.1553C60.4856 14.2863 60.7899 14.4152 61.0075 14.5462C61.3117 14.7194 61.5288 14.8927 61.6577 15.0876C61.7886 15.2629 61.8531 15.5011 61.8531 15.8048V16.8257C61.8531 17.2815 61.6798 17.5208 61.3534 17.5208C61.1802 17.5208 60.8981 17.4326 60.53 17.2594C59.2909 16.6953 57.9013 16.4132 56.3607 16.4132C55.1237 16.4132 54.1471 16.6087 53.4742 17.0217C52.7992 17.4326 52.4532 18.0632 52.4532 18.9532C52.4532 19.5616 52.6703 20.0829 53.1034 20.4939C53.5386 20.9064 54.3425 21.3199 55.4923 21.6881L58.5758 22.6652C60.1391 23.1648 61.2673 23.8594 61.9397 24.7499C62.6126 25.6403 62.939 26.6613 62.939 27.7895C62.939 28.7238 62.7431 29.5699 62.3749 30.3067C61.9841 31.0462 61.4622 31.6969 60.7899 32.2182C60.117 32.7601 59.3131 33.1509 58.3809 33.435C57.4038 33.7372 56.3828 33.8903 55.2747 33.8903Z" fill="#D12128"/>
<path d="M60.8433 37.8201C58.5581 37.8526 55.8603 38.3625 53.82 39.796C53.1894 40.2513 53.2982 40.8592 53.9932 40.7726C56.3177 40.4905 61.4388 39.8826 62.3515 41.0546C63.2642 42.2044 61.3326 47.0462 60.4628 49.1963C60.2029 49.846 60.767 50.1085 61.3527 49.6088C65.1735 46.396 66.1728 39.6872 65.3911 38.7101C65.0008 38.2331 63.1286 37.7871 60.8433 37.8201ZM0.84002 39.1148C0.362036 39.1746 0.145473 39.7521 0.65027 40.2085C9.16221 47.8923 20.4291 52.5175 32.9351 52.5175C41.858 52.5175 52.2349 49.7176 59.3769 44.4428C60.5489 43.5724 59.53 42.2493 58.3353 42.7907C50.3256 46.1784 41.6182 47.8284 33.6946 47.8284C21.9497 47.8284 10.5946 44.5938 1.38916 39.252C1.18807 39.1329 0.999864 39.0952 0.840536 39.1148H0.84002Z" fill="#D12128"/>
</svg>
