<svg width="63" height="63" viewBox="0 0 63 63" fill="none" xmlns="http://www.w3.org/2000/svg">
<path d="M58.8663 17.9687C51.3526 2.85071 33.0058 -3.31345 17.8873 4.20028C13.1733 6.54319 9.14425 10.0638 6.19043 14.421L18.473 35.7096C16.2104 28.5207 20.206 20.8584 27.3949 18.5963C28.6592 18.1984 29.9749 17.9871 31.3004 17.9692" fill="#F06B59"/>
<path d="M6.19041 14.4209C-3.21038 28.4443 0.53714 47.4324 14.5601 56.8332C18.8988 59.7415 23.9102 61.49 29.1165 61.9121L41.9444 40.0772C37.148 45.8904 28.547 46.7148 22.7333 41.9179C20.7588 40.2893 19.2822 38.138 18.4725 35.71" fill="#7E1015"/>
<path d="M29.1172 61.9127C45.952 63.185 60.6305 50.5693 61.9033 33.735C62.314 28.3032 61.2656 22.8603 58.8665 17.9697H31.301C38.8374 18.0042 44.9199 24.1423 44.8844 31.6791C44.8706 34.7285 43.8357 37.6853 41.9451 40.0778" fill="#D12128"/>
<path d="M6.19043 14.4211L18.473 35.7096C17.563 32.648 17.7558 29.3641 19.0178 26.4299L6.73577 13.6021" fill="url(#paint0_linear_199_27)"/>
<path d="M29.1166 61.9126L41.9445 40.0776C39.9204 42.4911 37.1239 44.1302 34.0292 44.717L28.5703 61.9126" fill="#D12128"/>
<path d="M58.8667 17.9688H31.3008C33.3506 17.9783 35.3718 18.4495 37.2145 19.3474C39.0572 20.2452 40.674 21.5466 41.9448 23.1549L59.4131 18.7878" fill="#D12128"/>
<defs>
<linearGradient id="paint0_linear_199_27" x1="12.6041" y1="34.8911" x2="12.6041" y2="13.0567" gradientUnits="userSpaceOnUse">
<stop stop-opacity="0.15"/>
<stop offset="0.3" stop-opacity="0.06"/>
<stop offset="1" stop-opacity="0.03"/>
</linearGradient>
</defs>
</svg>
