<svg width="79" height="79" viewBox="0 0 79 79" fill="none" xmlns="http://www.w3.org/2000/svg">
<path d="M27.4279 62.1073C24.8172 60.0521 22.0336 58.0833 20.1265 55.3121C16.121 50.424 13.035 44.7582 10.9304 38.8085C9.65286 34.9388 9.22083 30.7913 7.57294 27.0696C5.85715 24.3663 7.86919 21.4162 10.8255 20.5583C12.1401 20.3052 14.4607 19.0585 11.6649 19.9534C9.15911 21.7927 8.9184 18.2809 11.4859 18.0587C13.2387 17.8241 13.8868 16.3923 13.2881 15.0962C11.4057 13.868 17.8553 12.5163 14.6089 10.6833C11.2267 7.0357 19.3365 6.33211 17.3368 10.4796C16.8616 13.6643 23.0026 9.89328 21.5769 13.5717C23.0273 15.3369 27.0082 13.9729 26.9032 16.454C29.014 16.6021 29.7423 18.3734 31.7173 18.5092C33.7725 19.435 37.4942 20.1695 38.1916 22.4839C36.1549 24.0948 31.4334 19.1511 31.2112 23.6195C31.8284 30.2173 31.6679 37.0125 34.0811 43.2955C35.2229 47.0973 37.9879 50.0907 40.4875 53.0532C42.8822 55.954 46.1163 57.9969 49.4244 59.7188C52.319 61.0828 55.442 61.9901 58.602 62.5579C59.8796 61.5766 62.1447 57.9413 64.1382 59.472C64.2369 61.2001 60.1758 63.0763 63.9468 62.8912C66.1625 62.2246 67.6993 64.6008 69.5262 62.453C71.205 64.4465 76.5128 61.1816 75.3154 65.2488C73.6984 66.2919 71.3407 65.6623 69.7175 67.1004C67.0451 65.7673 64.922 68.2916 61.9657 67.9768C58.6822 68.5631 55.3432 68.8038 52.0104 68.8038C46.5483 68.3718 40.969 68.1928 35.7784 66.2919C32.8529 65.4402 29.9954 63.7738 27.4279 62.1073ZM32.0382 64.107C34.8958 65.3414 37.6917 66.6437 40.8208 67.0387C45.7892 67.7299 50.9242 68.7915 55.9111 67.8225C53.6521 66.8041 51.3192 68.2175 49.0726 67.0942C46.3755 67.6744 43.4809 66.9461 40.7406 66.5881C37.6238 65.1995 34.2601 64.2428 31.3408 62.4406C27.6932 61.1075 33.2294 64.1502 34.2107 64.3971C36.4882 65.6932 31.705 63.7305 31.0261 63.1936C29.1189 62.1197 28.8721 62.348 30.8347 63.4343C31.2297 63.6627 31.6247 63.9095 32.0382 64.107ZM26.6008 60.262C29.372 61.2865 26.5885 58.3116 25.3232 58.4845C24.7616 57.5093 23.1754 56.8921 24.2925 56.3675C22.2805 57.0649 22.1818 53.7136 21.2375 54.1888C19.1082 53.5161 20.4104 51.1338 17.8738 49.671C17.6454 48.128 15.3557 46.7949 14.6274 44.4681C14.3065 43.277 12.0414 39.8639 13.43 43.0424C14.615 46.1037 16.695 48.7267 18.4293 51.3436C19.7747 53.837 21.3671 56.4416 23.8111 57.9969C24.6382 58.7992 25.4343 60.0151 26.6008 60.262ZM18.6206 51.5041C18.7193 51.0844 19.1267 52.4052 18.6206 51.5041V51.5041ZM29.9151 61.4902C29.0325 61.1445 30.5323 61.2186 29.9151 61.4902V61.4902ZM31.4211 62.0395C30.736 62.4653 31.2668 61.2803 31.4211 62.0395V62.0395ZM33.3035 62.8233C31.921 62.2863 34.1984 61.9716 33.3035 62.8233V62.8233ZM36.5252 64.6193C34.7847 64.3169 37.0745 63.817 36.5252 64.6193V64.6193ZM30.3348 60.3052C28.5388 60.2928 31.7235 59.4041 30.3348 60.3052V60.3052ZM31.7482 61.0088C31.2421 61.2186 31.705 60.5335 31.7482 61.0088V61.0088ZM38.8026 65.4093C39.9382 66.1252 45.425 66.977 41.9873 65.7055C41.4133 65.829 35.6118 64.0638 38.8026 65.4093ZM27.6007 56.6884C25.8417 56.1638 27.4896 56.2132 27.6007 56.6884V56.6884ZM30.8841 58.6017C29.1128 58.145 31.742 58.0092 30.8841 58.6017V58.6017ZM33.6491 60.299C31.6556 59.8361 34.8711 59.8361 33.6491 60.299V60.299ZM26.2614 55.2319C27.5945 56.2502 31.6309 55.3615 28.2981 54.6209C26.786 53.8123 23.3668 53.263 25.6936 55.1084L26.2614 55.2319ZM35.5192 60.8853C33.1924 60.3422 36.0747 59.941 35.5192 60.8853V60.8853ZM32.7048 58.6449C35.9574 59.5645 29.9707 56.5835 31.9025 58.3055L32.3345 58.503L32.7048 58.6449ZM38.3459 61.9037C35.5624 61.484 41.4257 61.9345 38.3459 61.9037V61.9037ZM25.0764 53.4482C24.3172 53.4976 24.9591 52.8742 25.0764 53.4482V53.4482ZM43.555 64.8291C42.5551 65.6006 43.6414 63.7923 43.555 64.8291V64.8291ZM30.3348 56.6699C29.372 56.6452 30.1497 56.1268 30.3348 56.6699V56.6699ZM25.3726 53.0902C22.9471 52.3126 27.1378 52.9853 25.3726 53.0902V53.0902ZM19.4847 49.2884C17.559 47.7639 19.2625 48.4366 19.4847 49.2884V49.2884ZM34.9329 59.0893C34.6119 58.719 34.7786 59.1695 34.9329 59.0893V59.0893ZM44.5486 64.9896C44.024 65.2056 44.5178 64.428 44.5486 64.9896V64.9896ZM34.0811 58.2129C32.5752 57.9907 34.254 57.4846 34.0811 58.2129V58.2129ZM26.9218 53.6704C24.811 52.7816 28.2364 53.5284 26.9218 53.6704V53.6704ZM39.0372 61.2001C37.0375 60.8051 41.0862 60.3854 39.0372 61.2001V61.2001ZM32.7357 56.923C35.0995 57.2254 29.9213 55.3121 32.2172 56.7502L32.7357 56.923ZM40.9504 61.9777C43.16 60.657 42.4317 65.0698 44.6968 62.348C46.931 60.7187 42.765 64.3662 45.5176 62.6381C47.5111 61.305 50.4489 63.2677 52.3067 63.9095C53.6398 63.8416 54.9421 65.0637 56.3122 64.323C58.9476 63.6133 51.1525 63.2677 53.1954 62.0086C50.7822 62.7122 48.9986 61.1692 47.8136 59.6263C45.1041 59.0029 41.975 57.6204 40.6233 55.2195C40.074 54.3184 41.4195 55.3491 40.1481 53.8741C38.5187 52.4237 37.704 50.7758 36.6116 49.0106C35.3032 48.3132 35.1489 46.258 35.0193 48.9427C35.0316 47.2516 33.4393 46.1098 33.0504 46.5851C33.0443 44.9557 34.7539 45.7704 33.5565 44.5669C33.2973 42.8758 32.4518 41.1168 32.1987 39.2097C31.8037 38.2901 32.1432 36.3213 30.8471 38.4012C30.378 40.6045 30.6928 35.6979 31.4272 37.3149C32.39 35.667 31.0816 35.8584 31.0261 36.0867C31.6556 34.6919 31.4211 32.7169 30.8594 33.4698C31.1927 31.9948 31.3902 28.0386 30.3595 28.7422C30.9829 27.1992 31.5445 21.6816 28.835 23.7862C27.7365 23.8047 25.8417 24.1812 24.9406 24.6317C27.755 26.1809 24.6567 25.1934 23.5087 24.9465C23.3606 26.3845 22.225 25.7612 20.8054 25.7735C23.0705 26.0512 19.7007 28.088 18.4046 27.298C16.7135 28.1065 19.8611 30.1185 18.4354 30.7419C18.6082 31.68 15.8494 30.4024 16.0654 32.5688C14.4299 31.8775 15.8432 35.1363 16.6579 34.0377C19.4415 34.7906 18.6206 36.5126 18.6885 38.142C18.2318 39.0924 16.4481 35.9077 18.2935 36.0559C16.8369 33.692 16.6826 35.2041 15.4791 36.2966C15.2014 36.3768 18.5589 37.858 16.4481 38.5925C18.3058 38.8826 18.3614 40.5058 18.7379 41.5303C19.855 42.6906 19.6266 40.2466 20.9597 41.6414C20.1142 40.3947 16.4851 38.1358 19.4044 38.8579C19.3859 37.605 18.8736 36.5928 19.7747 36.6175C20.6635 35.0128 18.8428 40.5798 20.8425 38.537C21.3979 38.2962 21.5337 36.9323 22.5274 38.6666C23.9716 40.0861 23.052 41.1168 21.0091 39.8145C21.3732 41.0551 23.7371 41.4933 23.2927 43.4313C23.7618 45.1347 24.4222 44.5052 24.9961 44.4064C25.4467 46.0605 25.6997 44.8446 25.7244 44.0546C27.7858 44.499 27.3044 45.7148 27.9463 46.5666C29.3658 47.2084 25.9157 42.2216 28.3536 45.0668C30.9211 47.3812 29.3165 48.3502 27.0143 47.9799C28.4709 47.8627 28.94 49.9487 30.7607 49.8747C32.4209 50.6647 33.5504 53.7012 30.6866 52.436C29.6929 51.5411 26.175 50.4363 29.0511 52.1398C31.705 53.368 33.8096 54.1024 36.3709 55.6454C38.1978 56.9538 38.9939 58.4474 39.6852 58.7437C38.1484 59.4781 35.0501 58.1573 37.3522 57.75C35.9142 57.4908 34.3033 56.7625 35.6797 58.5523C36.8461 59.5275 39.821 59.4287 40.3579 59.5337C39.9074 60.5273 39.1297 60.6076 40.3764 60.6816C38.9878 61.4346 40.8208 61.5519 40.9504 61.9777ZM38.1114 53.9543C37.2658 53.0717 37.0498 51.4177 37.9632 52.8557C38.4261 53.0409 39.463 55.559 38.1114 53.9543ZM47.363 59.8299C47.3754 60.2311 47.8876 59.7929 47.363 59.8299V59.8299ZM36.7782 51.788C36.7412 50.4487 37.0807 52.8187 36.7782 51.788V51.788ZM35.8586 50.5474C34.7909 48.4984 37.1979 51.1338 35.8586 50.5474V50.5474ZM24.7122 42.8573C25.0208 43.925 25.3356 42.6906 24.7122 42.8573V42.8573ZM33.5812 47.6652C33.9639 46.2271 34.0318 48.8748 33.5812 47.6652V47.6652ZM27.3168 43.3078C26.8786 42.5116 28.2425 44.0546 27.3168 43.3078V43.3078ZM32.6925 45.0298C31.6865 42.777 33.4084 43.7954 32.9147 45.4001L32.6925 45.0298ZM23.4223 38.8517C22.9718 38.1111 22.2311 35.9386 22.4657 35.2782C22.6817 36.3583 24.7616 39.9256 23.484 36.7533C22.0768 34.0994 25.169 37.6173 25.4899 38.2777C25.638 38.9381 24.6197 38.0988 25.3109 39.6417C24.0518 37.8827 24.5703 40.6169 23.4223 38.8517ZM20.5586 36.8767C20.6758 35.1548 21.2128 38.0555 20.5586 36.8767V36.8767ZM21.8423 37.3211C22.4595 36.0188 22.8854 39.1295 21.8423 37.3211V37.3211ZM18.744 34.9202C17.6763 33.8587 16.9048 32.8835 18.7934 34.2598C19.5217 34.2907 17.1764 32.038 18.9662 33.5439C20.8548 33.8895 19.8982 36.636 18.744 34.9202ZM20.3734 34.877C20.7005 35.4819 20.9906 34.266 20.3734 34.877V34.877ZM21.3732 35.198C20.4351 33.439 22.515 35.9386 21.3732 35.198V35.198ZM19.3859 33.297C16.2876 30.5382 23.2804 34.7412 19.892 33.8093L19.3859 33.297ZM28.2672 38.4567C26.9218 37.6544 27.9093 32.7909 28.366 36.1176C29.6682 35.6979 28.2919 37.8334 29.2671 37.8148C29.1189 39.1603 28.6807 39.6479 28.2672 38.4567ZM31.5568 40.4009C31.6865 38.932 31.8346 41.4007 31.5568 40.4009V40.4009ZM30.9829 39.833C31.0014 40.5737 31.131 39.2097 30.9829 39.833V39.833ZM19.9907 32.3898C17.9972 29.6433 25.78 35.1733 21.2683 33.0872C20.7931 32.9576 20.2253 32.9144 19.9907 32.3898ZM26.3231 35.7411C26.1318 33.4266 26.7428 36.1238 26.3231 35.7411V35.7411ZM31.1248 38.827C31.1557 39.6973 31.4951 37.5063 31.1248 38.827V38.827ZM20.2993 31.3405C21.4843 31.0875 25.206 33.4205 21.7868 32.0071C21.4041 31.5813 20.5956 31.7726 20.2993 31.3405ZM30.4644 36.4077C30.5879 34.0377 31.1742 34.9943 30.4706 36.7471L30.4644 36.4077ZM21.1757 30.5135C21.6572 29.8037 19.892 27.3165 21.4288 29.6186C22.0954 30.1432 23.3482 30.5012 22.2373 30.7234C23.9901 32.2663 21.8176 31.143 21.1757 30.5135ZM29.9645 35.667C30.2546 37.247 30.2978 32.9699 29.9645 35.667V35.667ZM20.1697 28.0263C20.3672 28.5138 20.54 27.8658 20.1697 28.0263V28.0263ZM22.4595 29.3902C23.052 28.1497 23.5519 30.7666 22.4595 29.3902V29.3902ZM28.9214 32.9823C28.9214 32.507 29.0449 33.6735 28.9214 32.9823V32.9823ZM28.5511 32.1552C27.6562 29.9395 29.3843 33.3279 28.5511 32.1552V32.1552ZM28.0018 30.7048C27.8475 29.7914 28.5141 31.8528 28.0018 30.7048V30.7048ZM28.8968 29.2483C28.2796 28.162 29.6744 24.4651 29.8287 26.761C29.1807 28.5447 29.6436 29.5445 30.0941 27.1498C30.9335 25.2613 29.9151 30.8653 28.8968 29.2483ZM29.8164 23.7491C29.8781 24.1503 30.0879 23.422 29.8164 23.7491V23.7491ZM28.2796 54.0654C27.9154 53.7445 28.3228 54.2691 28.2796 54.0654V54.0654ZM31.4457 55.6701C33.2109 56.1268 33.1986 55.3985 31.6062 55.1825C30.7483 54.3863 28.045 53.5408 30.4644 55.0838C30.6311 55.4849 31.1372 55.4726 31.4457 55.6701ZM25.1875 51.5102C26.1565 52.2385 28.8474 53.5593 26.57 51.788C27.3353 50.8992 25.1011 50.424 25.8417 49.8253C23.9531 48.6712 24.3543 48.7761 25.675 48.8131C23.41 47.8009 26.0022 47.875 25.8787 47.3566C25.0023 47.1838 21.5399 45.8136 23.5766 47.4677C21.5029 46.4123 23.0829 47.8627 22.4533 47.7084C20.3302 47.1282 24.3419 49.3254 22.12 48.7761C23.3359 49.7389 25.3911 51.2448 22.6323 49.7945C22.2805 50.3191 24.6135 51.1152 25.1875 51.5102ZM28.5018 53.4173C26.5268 51.825 32.532 54.7134 28.5018 53.4173V53.4173ZM45.4744 63.6935C44.9189 64.3786 45.5238 62.8912 45.4744 63.6935V63.6935ZM47.2149 64.428C48.1468 63.5269 47.2519 65.866 48.7579 64.2058C48.7764 63.0208 48.7146 62.3172 47.0297 63.7614C46.5668 64.0206 46.357 65.113 47.2149 64.428ZM19.534 47.0418C17.5282 45.9247 19.244 45.9185 19.534 47.0418V47.0418ZM21.3918 48.2638C18.923 47.227 20.7005 47.1159 21.3918 48.2638V48.2638ZM31.9889 54.6517C33.0257 55.5713 36.7412 55.3245 33.2418 54.7628C32.7295 53.9975 29.9583 54.1827 31.9889 54.6517ZM46.5545 63.6441C45.0115 64.2428 48.1407 62.311 46.5545 63.6441V63.6441ZM49.8626 65.9216C49.1775 66.1067 49.875 65.4957 49.8626 65.9216V65.9216ZM49.8688 65.3229C48.1592 65.434 51.634 63.4528 49.8688 65.3229V65.3229ZM14.9483 43.2091C13.4486 41.0674 14.0164 40.1046 12.566 38.3518C12.2882 37.0125 10.0787 33.9759 11.4242 37.1915C12.6524 39.0739 13.0165 41.987 14.9483 43.2091ZM49.3133 64.7304C47.9864 63.817 52.5597 62.632 49.3133 64.7304V64.7304ZM51.7882 65.6994C50.7637 65.4093 53.4176 64.3045 51.7882 65.6994V65.6994ZM18.9786 44.6718C17.7812 44.5854 19.4476 43.9805 18.9786 44.6718V44.6718ZM51.276 65.0328C52.8498 64.0206 50.9118 64.1749 50.9921 65.1254L51.276 65.0328ZM29.9336 51.5843C29.1004 51.6398 29.8781 50.8992 29.9336 51.5843V51.5843ZM31.2544 52.3434C30.6064 52.473 30.8286 51.4917 31.2544 52.3434V52.3434ZM53.8003 65.7179C55.8185 64.2613 52.5782 65.4402 53.3806 65.9956L53.8003 65.7179ZM53.0226 65.3476C51.2945 65.9586 54.6705 63.9712 53.0226 65.3476V65.3476ZM56.9664 67.9706C55.6272 67.7361 58.0712 67.2362 56.9664 67.9706V67.9706ZM19.9907 44.1719C21.4658 44.5052 25.8911 47.8071 23.2804 44.4002C21.9411 44.0052 22.7434 40.7341 21.3794 41.3143C22.2929 42.8449 22.1324 43.493 20.2068 42.5302C17.7936 41.3513 18.849 43.1103 19.3242 43.5979C18.6823 43.7522 20.1821 44.1595 19.9907 44.1719ZM13.2634 38.8579C13.5288 37.7655 10.8255 32.8403 11.9858 36.3891C12.4055 37.1359 12.3623 38.5431 13.2634 38.8579ZM25.6133 46.474C24.8542 45.8383 25.5763 46.3814 25.6133 46.474V46.474ZM27.4834 46.9122C25.4158 46.437 27.4834 45.7519 27.4834 46.9122V46.9122ZM43.7154 57.139C42.4934 57.1266 43.4068 56.349 43.7154 57.139V57.139ZM44.4931 57.713C44.0487 57.7994 44.382 57.2686 44.4931 57.713V57.713ZM50.9304 61.7617C50.1589 61.7062 51.5475 61.305 50.9304 61.7617V61.7617ZM16.6209 39.7158C14.7261 39.2282 18.3922 39.0307 16.6209 39.7158V39.7158ZM42.2897 55.8861C41.1603 56.17 42.265 54.7381 42.2897 55.8861V55.8861ZM15.9235 38.0864C14.8681 37.8334 17.0591 37.7038 15.9235 38.0864V38.0864ZM19.2193 39.6849C18.8736 39.8269 19.2007 39.3084 19.2193 39.6849V39.6849ZM59.4722 64.3662C60.935 64.07 64.2678 65.113 64.8047 63.9774C63.0272 63.9342 58.6637 62.7245 58.46 64.2613L58.8489 64.323L59.4722 64.3662ZM20.2685 39.9503C19.3674 39.9071 20.2993 38.79 20.2685 39.9503V39.9503ZM11.597 33.9327C10.0972 33.5995 11.202 31.7232 11.597 33.9327V33.9327ZM13.6646 34.4512C11.7698 33.8155 13.6893 33.7414 13.6646 34.4512V34.4512ZM14.8434 35.0313C14.5039 34.7598 14.578 35.3831 14.8434 35.0313V35.0313ZM22.2867 39.8022C21.4535 39.5677 22.6385 39.4812 22.2867 39.8022V39.8022ZM14.0596 33.7229C11.6649 33.476 13.8559 32.0503 14.0596 33.7229V33.7229ZM9.8195 30.9702C9.40598 31.2603 9.75778 30.1988 9.8195 30.9702V30.9702ZM10.449 30.495C9.9059 30.6123 10.3441 29.5816 10.449 30.495V30.495ZM13.9361 32.5749C15.4112 31.9948 11.2514 31.3776 13.6337 32.4638L13.9361 32.5749ZM60.5893 61.3914C59.392 61.126 61.5336 60.5273 60.5893 61.3914V61.3914ZM66.2243 64.3169C65.2738 64.4588 66.6007 63.1998 66.2243 64.3169V64.3169ZM14.2879 30.748C13.1214 30.9641 14.4484 29.668 14.2879 30.748V30.748ZM9.33192 27.4276C9.06653 25.9031 9.10356 23.2184 11.6525 24.1256C8.25184 24.8045 14.0102 28.3534 13.2819 25.5513C14.7138 25.6192 16.0778 24.7058 15.331 26.0945C18.1515 25.7859 20.1018 23.3418 22.8236 23.6812C24.9468 23.3973 27.2612 23.1875 29.5448 22.3358C31.4211 22.2 33.2294 20.1756 32.2049 18.9783C29.6436 18.7623 26.9588 19.0832 24.1321 19.6448C20.9968 20.2991 18.1454 21.5334 14.9792 22.0704C11.8932 22.4839 15.5964 23.2122 14.7138 23.3727C13.1029 23.9281 16.6332 24.3108 14.504 24.8971C13.1893 24.6441 11.8192 24.1935 12.3808 22.811C9.4245 23.1937 6.82614 24.4219 9.16528 27.4276H9.33192ZM16.4543 23.7985C17.1455 21.2434 20.1636 25.897 17.5899 24.138C17.2813 23.9034 16.7752 23.7183 16.4543 23.7985ZM16.59 22.558C17.1208 22.9777 17.5899 21.8173 16.59 22.558V22.558ZM17.8615 22.5827C17.954 21.41 20.7684 23.206 18.3243 23.0023L17.8615 22.5827ZM19.5957 21.8791C19.7809 22.5395 20.2315 21.1384 19.5957 21.8791V21.8791ZM20.0401 21.5828C21.0955 20.3114 26.0207 20.7743 22.4163 21.4594C21.4535 20.7311 20.7129 21.8914 20.0401 21.5828ZM26.4712 20.5953C26.3107 17.1267 29.6682 21.8235 26.4712 20.5953V20.5953ZM28.2981 20.583C28.9647 18.8363 30.8903 19.8794 28.6067 20.2312C28.6561 20.4163 28.5388 21.1323 28.2981 20.583ZM13.572 29.8531C11.455 28.7916 15.5655 28.6311 13.572 29.8531V29.8531ZM15.0471 30.2605C13.5288 29.958 15.7445 29.5198 15.0471 30.2605V30.2605ZM10.7021 27.1807C9.35661 26.8474 11.8439 26.3043 10.7021 27.1807V27.1807ZM69.5509 63.9959C68.6807 64.4527 69.5818 62.9776 69.5509 63.9959V63.9959ZM63.5704 59.9163C62.805 60.0151 63.7432 58.7437 63.5704 59.9163V59.9163ZM71.1988 64.3909C72.7911 64.3971 76.0252 63.8972 72.5566 63.8972C72.0135 63.9774 69.3904 63.9651 71.1988 64.3909ZM16.3432 29.5445C17.6331 29.4581 18.3614 28.125 16.0901 28.1991C12.5783 27.8349 19.1884 29.4026 15.6396 28.952C15.1643 29.2668 16.3123 29.6309 16.3432 29.5445ZM17.4788 30.1185C17.0776 30.5567 17.343 29.2915 17.4788 30.1185V30.1185ZM18.8243 26.5265C18.0466 26.3413 19.3797 25.8352 18.8243 26.5265V26.5265ZM14.5348 19.3671C16.8369 18.5833 19.9784 17.7069 21.0647 19.7498C19.9599 18.4228 20.6203 17.1082 21.6633 19.0585C23.1384 21.0273 23.879 18.1636 22.9162 17.5032C24.0086 18.861 25.2554 19.5029 23.6507 17.5896C25.3973 15.4912 20.1574 17.8673 18.9662 17.8427C18.3984 18.0957 13.0536 19.2005 14.5348 19.3671ZM15.8864 16.7873C17.2011 15.7998 20.4228 17.3798 18.3552 15.8059C18.1515 15.6208 13.8189 16.9971 15.8864 16.7873ZM20.6697 16.9848C22.2065 17.0218 20.0093 14.9234 21.8361 15.8738C21.5337 14.8925 19.7068 14.7073 18.8119 14.3185C18.3058 15.2134 19.8365 16.9971 20.6697 16.9848ZM16.7258 12.6398C15.7939 13.0101 17.2566 11.9238 16.7258 12.6398V12.6398ZM18.6761 13.1088C21.1511 12.7817 18.0466 12.0473 18.1762 13.0841L18.6761 13.1088ZM15.0286 10.2574C13.2881 7.98 18.3058 10.6401 16.5345 8.25773C15.0471 7.07273 13.6152 9.59086 15.0286 10.2574ZM37.3769 22.2926C38.1731 20.8792 34.0811 20.3855 36.84 21.7927C37.0992 21.8791 37.0375 22.3913 37.3769 22.2926Z" fill="#D12128"/>
</svg>
