<svg width="61" height="61" viewBox="0 0 61 61" fill="none" xmlns="http://www.w3.org/2000/svg">
<path fill-rule="evenodd" clip-rule="evenodd" d="M41.956 20.4028C42.7209 22.6155 43.2718 24.8744 43.4529 27.2158C43.6778 30.1204 43.5749 33.0046 42.9625 35.8616C42.9458 35.9402 42.9106 36.0141 42.8844 36.0903C42.6923 36.0908 42.4964 36.067 42.3087 36.096C40.7222 36.3453 39.1371 36.6036 37.5521 36.8604C35.9137 37.1259 34.2729 37.3808 32.6373 37.6644C32.0578 37.7645 31.3406 37.6449 31.1066 38.4464C31.0999 38.4684 31.0332 38.4722 30.9946 38.4846L31.0737 33.6946L30.9932 22.137L31.7566 22.006C33.0052 21.8015 34.2538 21.5942 35.5034 21.3955C36.9945 21.1587 38.4871 20.9285 39.9792 20.6973C40.6374 20.5949 41.2964 20.501 41.956 20.4028Z" fill="#D12128"/>
<path fill-rule="evenodd" clip-rule="evenodd" d="M29.4178 52.4474C28.6124 51.755 27.7789 51.093 27.0069 50.3648C22.8527 46.4465 19.8141 41.8348 18.3177 36.2748C17.9055 34.7445 17.6305 33.1895 17.5424 31.6083C17.4804 30.5017 17.3908 29.3851 17.469 28.2843C17.6772 25.3563 18.1004 22.4564 18.9592 19.6361L19.0064 19.5703C19.0898 19.6814 19.2098 19.7795 19.2523 19.9049C20.0905 22.3735 20.9226 24.844 21.7504 27.3159C24.3515 35.0839 26.9492 42.8537 29.5546 50.6198C29.6056 50.7713 29.7376 50.8957 29.8324 51.0325L29.4178 52.4474Z" fill="#D12128"/>
<path fill-rule="evenodd" clip-rule="evenodd" d="M41.9551 20.4024C41.2956 20.5006 40.636 20.5945 39.9779 20.696C38.4858 20.9271 36.9932 21.1573 35.502 21.3942C34.2525 21.5929 33.0039 21.8002 31.7553 22.0046L30.9918 22.1357L30.9861 21.6377C30.9609 21.2283 30.9175 20.8194 30.9127 20.41C30.8798 17.7994 30.8593 15.1888 30.8269 12.5782C30.8069 10.9441 30.7769 9.31043 30.7435 7.67678C30.723 6.6617 30.7011 5.64614 30.6554 4.6325C30.6306 4.08779 30.5429 3.54593 30.5072 3.00122C30.4871 2.68812 30.5148 2.37264 30.521 2.05811C30.9103 2.8125 31.2911 3.57262 31.6914 4.3213C32.3238 5.50508 33.3313 6.37719 34.2382 7.32889C37.8234 11.0899 40.3687 15.4629 41.9551 20.4024Z" fill="#D12128"/>
<path fill-rule="evenodd" clip-rule="evenodd" d="M30.994 38.4838C31.0326 38.4714 31.0998 38.4676 31.106 38.4456C31.34 37.6441 32.0572 37.7637 32.6367 37.6636C34.2723 37.3805 35.9131 37.1251 37.5515 36.8596C39.1365 36.6028 40.7216 36.3445 42.3081 36.0952C42.4958 36.0657 42.6917 36.09 42.8837 36.0895C42.5873 37.1475 42.3538 38.2283 41.9778 39.2572C41.5508 40.4243 41.0342 41.5633 40.4857 42.6799C39.6645 44.3453 38.6482 45.9072 37.4581 47.3326C36.5436 48.4325 35.5242 49.449 34.5024 50.4531C33.9377 51.0083 33.272 51.4606 32.6524 51.9595L32.4918 51.8499L31.9133 51.3552L31.3147 50.0433C30.9059 48.5128 30.6828 46.9387 30.6504 45.3548L30.6613 45.0875L30.7428 43.9314C30.77 43.5368 30.8062 43.1426 30.8229 42.7471C30.8844 41.326 30.9378 39.9049 30.994 38.4838Z" fill="#D12128"/>
<path fill-rule="evenodd" clip-rule="evenodd" d="M30.9936 38.484C30.9373 39.9051 30.884 41.3263 30.8234 42.7478C30.8068 43.1434 30.7705 43.5375 30.7434 43.9321L30.3788 44.0698C29.5691 41.6861 28.759 39.3275 27.9664 36.9628C26.6559 33.0507 25.3611 29.1324 24.0524 25.2194C22.9955 22.061 21.9311 18.905 20.8595 15.7515C20.8094 15.6038 20.6655 15.4885 20.5654 15.3579L22.8987 11.0679C22.9787 11.207 23.0845 11.3371 23.1351 11.4868C24.2157 14.6807 25.2908 17.8766 26.3604 21.0743C27.7501 25.2346 29.1312 29.3984 30.5199 33.5592C30.5751 33.7256 30.6666 33.879 30.7539 34.0653L31.0732 33.6936L30.9936 38.484Z" fill="#D12128"/>
<path fill-rule="evenodd" clip-rule="evenodd" d="M20.5661 15.3584C20.6662 15.489 20.8097 15.6043 20.8602 15.752C21.9319 18.9055 22.9962 22.0615 24.0532 25.2199C25.3618 29.133 26.6566 33.0513 27.9672 36.9634C28.7592 39.3276 29.5694 41.6866 30.3795 44.0703L30.7441 43.9326L30.6626 45.0888L30.5887 45.3551C30.462 46.6209 30.3552 47.8895 30.2008 49.1524C30.1231 49.7853 29.9582 50.4067 29.8329 51.0334C29.7385 50.8966 29.6061 50.7722 29.5551 50.6207C26.9497 42.8541 24.352 35.0848 21.7509 27.3168C20.9234 24.8447 20.0907 22.3743 19.2527 19.9058C19.2103 19.7804 19.0907 19.6823 19.0068 19.5712L20.5661 15.3584Z" fill="#D12128"/>
<path fill-rule="evenodd" clip-rule="evenodd" d="M31.0729 33.694L30.7536 34.0658C30.6664 33.8794 30.5749 33.7255 30.5196 33.5596C29.1314 29.3988 27.7498 25.2351 26.3602 21.0747C25.2906 17.877 24.2154 14.6812 23.1348 11.4872C23.0848 11.3375 22.979 11.207 22.8984 11.0683L25.784 7.27246C25.875 7.39398 26.0047 7.50216 26.0519 7.63894C26.853 9.9841 27.6469 12.3321 28.4361 14.6816C29.1733 16.8757 29.8996 19.0731 30.6454 21.2643C30.6955 21.4111 30.8694 21.515 30.9857 21.6389L30.9914 22.1369C31.0191 25.9885 31.0462 29.8415 31.0729 33.694Z" fill="#D12128"/>
<path fill-rule="evenodd" clip-rule="evenodd" d="M30.9868 21.638C30.8706 21.5141 30.6966 21.4102 30.6466 21.2634C29.9007 19.0722 29.1745 16.8747 28.4372 14.6806C27.648 12.3312 26.8541 9.98365 26.053 7.63801C26.0058 7.50123 25.8762 7.39305 25.7852 7.27153C26.7235 6.35272 27.6328 5.40102 28.6088 4.52463C29.4766 3.74592 30.1743 2.91098 30.2062 1.6805C30.2077 1.62951 30.2343 1.57852 30.2753 1.43555L30.5227 2.05794C30.5165 2.37295 30.4884 2.68795 30.5088 3.00105C30.5446 3.54577 30.6323 4.08762 30.6571 4.63233C30.7028 5.64598 30.7247 6.66153 30.7452 7.67661C30.7781 9.31027 30.8081 10.9439 30.8286 12.5781C30.8605 15.1887 30.8815 17.7993 30.9144 20.4099C30.9182 20.8202 30.9611 21.2286 30.9868 21.638Z" fill="#D12128"/>
<path fill-rule="evenodd" clip-rule="evenodd" d="M29.8316 51.0326C29.9569 50.4059 30.1218 49.784 30.1995 49.1516C30.3544 47.8892 30.4607 46.6201 30.5874 45.3544L30.6189 45.3496L30.6503 45.3548C30.6828 46.9387 30.9058 48.5128 31.3147 50.0433C31.2308 50.1538 31.1121 50.2525 31.0678 50.3773C30.7213 51.3543 30.3949 52.3389 30.0465 53.3158C29.9989 53.4493 29.8664 53.5532 29.773 53.6704L29.417 52.4475L29.8316 51.0326Z" fill="#D12128"/>
<path fill-rule="evenodd" clip-rule="evenodd" d="M29.7734 53.6711C29.8668 53.5538 29.9998 53.4499 30.047 53.3165C30.3954 52.3395 30.7223 51.3554 31.0683 50.378C31.1126 50.2532 31.2308 50.1545 31.3151 50.0439L31.9132 51.3564C31.795 51.5241 31.632 51.6752 31.5663 51.862L30.4206 55.2261C30.3734 55.361 30.2124 55.4563 30.1046 55.5702L29.7734 53.6711Z" fill="#D12128"/>
<path fill-rule="evenodd" clip-rule="evenodd" d="M30.1045 55.5697C30.2127 55.4563 30.3733 55.3605 30.4205 55.2256L31.5661 51.8616C31.6314 51.6753 31.7949 51.5237 31.913 51.356L32.4921 51.8502C32.2123 52.1266 32.057 52.4459 32.1504 52.8495L31.9745 53.4252C31.8945 53.5238 31.7787 53.6096 31.7391 53.7226C31.3393 54.8677 30.9575 56.0191 30.5548 57.1643C30.5038 57.3097 30.3623 57.4236 30.2622 57.5513C30.2103 56.8903 30.1574 56.2307 30.1045 55.5697Z" fill="#D12128"/>
<path fill-rule="evenodd" clip-rule="evenodd" d="M30.2628 57.5509C30.3624 57.4227 30.5039 57.3088 30.5554 57.1639C30.9581 56.0192 31.3398 54.8678 31.7396 53.7222C31.7792 53.6097 31.8945 53.5235 31.9751 53.4248L31.7325 56.0673C31.6677 56.1422 31.5738 56.2075 31.5428 56.2947C31.2688 57.0638 31.0105 57.8387 30.7355 58.6079C30.6788 58.7666 30.5702 58.9067 30.4853 59.0549C30.41 58.9563 30.2752 58.861 30.269 58.758C30.2447 58.3572 30.2613 57.9536 30.2628 57.5509Z" fill="#D12128"/>
<path fill-rule="evenodd" clip-rule="evenodd" d="M30.4854 59.055C30.5702 58.9063 30.6788 58.7662 30.7355 58.6079C31.011 57.8392 31.2688 57.0644 31.5428 56.2947C31.5738 56.2075 31.6682 56.1427 31.7325 56.0674L31.7382 57.8021L31.1578 59.2909L30.4854 59.055Z" fill="#D12128"/>
<path fill-rule="evenodd" clip-rule="evenodd" d="M31.1572 59.2915L31.7377 57.8027L31.8573 59.5641L31.1572 59.2915Z" fill="#D12128"/>
<path fill-rule="evenodd" clip-rule="evenodd" d="M32.1513 52.8499C32.0579 52.4463 32.2127 52.1265 32.493 51.8506L32.6536 51.9602L32.1513 52.8499Z" fill="#D12128"/>
<path fill-rule="evenodd" clip-rule="evenodd" d="M30.6508 45.3553L30.6193 45.35L30.5879 45.3548L30.6618 45.0884L30.6508 45.3553Z" fill="#D12128"/>
</svg>
