<svg width="57" height="57" viewBox="0 0 57 57" fill="none" xmlns="http://www.w3.org/2000/svg">
<path d="M50.2183 13.5079L30.5814 2.10569C29.343 1.40032 27.7305 1.40032 26.4823 2.10569L6.6356 13.5079C5.35755 14.2431 4.45312 15.6249 4.45312 17.1029V39.8771C4.45312 41.3551 5.38116 42.7373 6.6592 43.4766L11.9028 46.4548C14.409 47.6892 15.2947 47.6892 16.4351 47.6892C20.1459 47.6892 22.2656 45.4453 22.2656 41.5314V19.0476C22.2656 18.7301 22.1004 18.2576 21.7887 18.2576H19.2847C18.9676 18.2576 18.2578 18.7301 18.2578 19.0472V41.531C18.2578 43.2659 16.6885 44.9924 13.7557 43.526L8.33759 40.403C8.14877 40.3006 8.01562 40.0944 8.01562 39.8771V17.1029C8.01562 16.8883 8.26277 16.6728 8.45292 16.5628L28.2355 5.18013C28.4203 5.07548 28.6919 5.07548 28.8763 5.18013L48.4175 16.5601C48.6045 16.6728 48.5386 16.8816 48.5386 17.1029V39.8771C48.5386 40.0944 48.6201 40.3059 48.4353 40.4106L28.8033 51.7999C28.6349 51.901 28.4261 51.901 28.2417 51.7999L23.2066 48.7945C23.0547 48.7063 22.8744 48.6747 22.7288 48.7562C21.3278 49.5502 21.0695 49.6557 19.7554 50.1113C19.4321 50.2239 18.9552 50.4194 19.938 50.9703L26.5277 54.8685C27.1568 55.2319 27.8705 55.4233 28.5971 55.4234C29.3283 55.4234 30.0443 55.2337 30.6754 54.8685L50.2179 43.4766C51.4959 42.732 52.1016 41.3551 52.1016 39.8771V17.1029C52.1016 15.6249 51.4959 14.2467 50.2183 13.5079ZM34.6943 36.2683C29.4726 36.2683 28.3223 34.8277 27.9389 32.2311C27.8944 31.9514 27.657 31.617 27.3725 31.617H24.8204C24.5047 31.617 24.2508 32 24.2508 32.3144C24.2508 35.6391 26.0584 39.6674 34.6947 39.6674C40.9465 39.6674 44.5308 37.2382 44.5308 32.9391C44.5308 28.6766 41.651 27.558 35.588 26.7555C29.4596 25.9455 28.8371 25.5363 28.8371 24.1006C28.8371 22.9169 29.3644 21.3383 33.9021 21.3383C37.9567 21.3383 39.4511 22.2084 40.0661 24.9413C40.1186 25.1983 40.3533 25.3826 40.6183 25.3826H43.1806C43.3383 25.3826 43.4888 25.3189 43.5992 25.2063C43.7061 25.0852 43.7626 24.9333 43.7484 24.7703C43.3516 20.0643 40.2251 17.8711 33.9016 17.8711C28.2769 17.8711 24.9215 20.2464 24.9215 24.2279C24.9215 28.5466 28.26 29.74 33.6594 30.2739C40.1186 30.9072 40.621 31.8512 40.621 33.1217C40.621 35.3282 38.8495 36.2683 34.6943 36.2683Z" fill="#D12128"/>
</svg>
