<svg width="63" height="63" viewBox="0 0 63 63" fill="none" xmlns="http://www.w3.org/2000/svg">
<path d="M31.1999 6.02822C29.1219 6.03807 27.1383 6.21476 25.3921 6.52386C20.2487 7.43243 19.3155 9.33425 19.3155 12.8421V17.474H31.4691V19.018H14.7539C11.222 19.018 8.12907 21.1408 7.16143 25.1807C6.04515 29.8097 5.99593 32.6989 7.16143 37.5327C8.02522 41.131 10.0885 43.6943 13.6209 43.6943H17.8001V38.1415C17.8001 34.1297 21.2705 30.5913 25.3925 30.5913H37.5324C40.9117 30.5913 43.6089 27.8085 43.6089 24.4154V12.8426C43.6089 9.54835 40.83 7.07412 37.5324 6.52435C35.4435 6.17686 33.2774 6.01887 31.1999 6.02822ZM24.6272 9.75359C25.8823 9.75359 26.908 10.7956 26.908 12.0772C26.908 13.3534 25.8828 14.3856 24.6272 14.3856C23.3672 14.3856 22.3469 13.3534 22.3469 12.0772C22.3464 10.7956 23.3672 9.75359 24.6272 9.75359Z" fill="url(#paint0_linear_182_126)"/>
<path d="M45.1243 19.0181V24.4154C45.1243 28.599 41.5766 32.1206 37.5318 32.1206H25.392C22.0668 32.1206 19.3154 34.9669 19.3154 38.2971V49.8708C19.3154 53.1641 22.179 55.1018 25.392 56.0463C29.2389 57.1769 32.9283 57.3816 37.5318 56.0463C40.5912 55.1599 43.6083 53.3772 43.6083 49.8708V45.2384H31.469V43.6939H49.6859C53.2178 43.6939 54.5349 41.2305 55.7634 37.5322C57.0322 33.7251 56.9776 30.0637 55.7634 25.1803C54.8902 21.6636 53.2232 19.0176 49.6859 19.0176L45.1243 19.0181ZM38.2961 48.3264C39.5566 48.3264 40.5769 49.3585 40.5769 50.6357C40.5769 51.9164 39.5561 52.9583 38.2961 52.9583C37.0411 52.9583 36.0158 51.9164 36.0158 50.6357C36.0158 49.3585 37.0411 48.3264 38.2961 48.3264Z" fill="#D12128"/>
<defs>
<linearGradient id="paint0_linear_182_126" x1="5.08729" y1="7.47655" x2="33.1192" y2="31.382" gradientUnits="userSpaceOnUse">
<stop stop-color="#D12128"/>
<stop offset="1" stop-color="#D12128"/>
</linearGradient>
</defs>
</svg>
