<svg width="67" height="59" viewBox="0 0 67 59" fill="none" xmlns="http://www.w3.org/2000/svg">
<path d="M33.0356 35.5161C36.3582 35.5161 39.0517 32.8226 39.0517 29.5C39.0517 26.1774 36.3582 23.4839 33.0356 23.4839C29.713 23.4839 27.0195 26.1774 27.0195 29.5C27.0195 32.8226 29.713 35.5161 33.0356 35.5161Z" fill="#D12128"/>
<path d="M55.8864 19.5787C54.7254 19.1565 53.5116 18.7343 52.2451 18.3649C52.5617 17.0984 52.8256 15.8318 53.0367 14.6181C54.1449 7.65206 52.9311 2.74419 49.5537 0.844365C48.551 0.263864 47.4428 0 46.1762 0C42.4821 0 37.7853 2.74419 33.0358 7.33542C28.2862 2.74419 23.5894 0 19.8953 0C18.6288 0 17.5206 0.263864 16.5179 0.844365C13.1404 2.79696 11.9267 7.70483 13.0349 14.6181C13.246 15.8318 13.5098 17.0984 13.8265 18.3649C12.5599 18.7343 11.3462 19.1038 10.1852 19.5787C3.58855 22.1118 0 25.5948 0 29.5C0 33.4052 3.64132 36.8882 10.1852 39.4213C11.3462 39.8435 12.5599 40.2657 13.8265 40.6351C13.5098 41.9016 13.246 43.1682 13.0349 44.3819C11.9267 51.3479 13.1404 56.2558 16.5179 58.1556C17.5206 58.7361 18.6288 59 19.8953 59C23.6422 59 28.339 56.2558 33.0358 51.6646C37.7853 56.2558 42.4821 59 46.1762 59C47.4428 59 48.551 58.7361 49.5537 58.1556C52.9311 56.203 54.1449 51.2952 53.0367 44.3819C52.8256 43.1682 52.5617 41.9016 52.2451 40.6351C53.5116 40.2657 54.7254 39.8962 55.8864 39.4213C62.483 36.8882 66.0716 33.4052 66.0716 29.5C66.0716 25.5948 62.483 22.1118 55.8864 19.5787ZM48.076 3.48301C50.2397 4.74955 50.9785 8.65474 50.0814 14.1959C49.9231 15.3041 49.6592 16.4651 49.3426 17.6789C46.5984 17.0456 43.6959 16.6234 40.6351 16.3596C38.8408 13.8265 36.9937 11.5572 35.1467 9.49911C39.0519 5.64669 43.0098 3.00805 46.229 3.00805C46.915 3.00805 47.5483 3.16637 48.076 3.48301ZM42.1655 34.7773C41.2156 36.466 40.1073 38.1547 38.9463 39.8435C36.9937 40.0018 35.0411 40.0546 33.0358 40.0546C30.9776 40.0546 29.025 40.0018 27.1252 39.8435C25.9642 38.1547 24.9088 36.466 23.9589 34.7773C22.9562 33.0358 22.0063 31.2415 21.1619 29.5C22.0063 27.7585 22.9562 25.9642 23.9589 24.2227C24.9088 22.534 26.017 20.8453 27.178 19.1565C29.1306 18.9982 31.0832 18.9454 33.0886 18.9454C35.1467 18.9454 37.0993 18.9982 38.9991 19.1565C40.1601 20.8453 41.2156 22.534 42.1655 24.2227C43.1682 25.9642 44.1181 27.7585 44.9624 29.5C44.0653 31.2415 43.1682 32.983 42.1655 34.7773ZM46.5456 33.0358C47.3372 34.8828 47.9705 36.6771 48.551 38.4714C46.7567 38.8936 44.8569 39.2102 42.8515 39.4741C43.4848 38.4714 44.1708 37.4159 44.7513 36.3077C45.3846 35.1995 45.9651 34.0912 46.5456 33.0358ZM33.0358 47.3372C31.7692 45.9651 30.5555 44.4875 29.3945 42.9571C30.6082 43.0098 31.822 43.0626 33.0358 43.0626C34.2495 43.0626 35.4633 43.0098 36.6771 42.9571C35.5161 44.4875 34.3023 45.9651 33.0358 47.3372ZM23.22 39.4213C21.2147 39.1574 19.3148 38.8408 17.5206 38.4186C18.1011 36.6771 18.7343 34.8301 19.5259 32.983C20.1064 34.0385 20.6869 35.1467 21.3202 36.2021C21.9535 37.3631 22.5868 38.3658 23.22 39.4213ZM19.5259 25.9642C18.7343 24.1172 18.1011 22.3229 17.5206 20.5286C19.3148 20.1064 21.2147 19.7898 23.22 19.5259C22.5868 20.5286 21.9007 21.5841 21.3202 22.6923C20.6869 23.8005 20.1064 24.9088 19.5259 25.9642ZM33.0358 11.6628C34.3023 13.0349 35.5161 14.5125 36.6771 16.0429C35.4633 15.9902 34.2495 15.9374 33.0358 15.9374C31.822 15.9374 30.6082 15.9902 29.3945 16.0429C30.5555 14.5125 31.7692 13.0349 33.0358 11.6628ZM44.7513 22.7451L42.8515 19.5787C44.8569 19.8426 46.7567 20.1592 48.551 20.5814C47.9705 22.3229 47.3372 24.1699 46.5456 26.017C45.9651 24.9088 45.3846 23.8005 44.7513 22.7451ZM15.9902 14.1959C15.093 8.65474 15.8318 4.74955 17.9955 3.48301C18.5233 3.16637 19.1565 3.00805 19.8426 3.00805C23.0089 3.00805 26.9669 5.59392 30.9249 9.49911C29.0778 11.5045 27.2308 13.8265 25.4365 16.3596C22.3757 16.6234 19.4732 17.0984 16.729 17.6789C16.4123 16.4651 16.2013 15.3041 15.9902 14.1959ZM2.95528 29.5C2.95528 27.0197 5.96333 24.381 11.2406 22.4284C12.2961 22.0063 13.4571 21.6369 14.6181 21.3202C15.4624 23.9589 16.5179 26.7558 17.7844 29.5528C16.5179 32.3497 15.4097 35.0939 14.6181 37.7326C7.33542 35.6216 2.95528 32.4553 2.95528 29.5ZM17.9955 55.517C15.8318 54.2505 15.093 50.3453 15.9902 44.8041C16.1485 43.6959 16.4123 42.5349 16.729 41.3211C19.4732 41.9544 22.3757 42.3766 25.4365 42.6404C27.2308 45.1735 29.0778 47.4428 30.9249 49.5009C27.0197 53.3533 23.0617 55.9919 19.8426 55.9919C19.1565 55.9919 18.5233 55.8336 17.9955 55.517ZM50.0814 44.8041C50.9785 50.3453 50.2397 54.2505 48.076 55.517C47.5483 55.8336 46.915 55.9919 46.229 55.9919C43.0626 55.9919 39.1046 53.4061 35.1467 49.5009C36.9937 47.4955 38.8408 45.1735 40.6351 42.6404C43.6959 42.3766 46.5984 41.9016 49.3426 41.3211C49.6592 42.5349 49.8703 43.6959 50.0814 44.8041ZM54.8309 36.5716C53.7755 36.9937 52.6145 37.3631 51.4535 37.6798C50.6091 35.0411 49.5537 32.2442 48.2871 29.4472C49.5537 26.6503 50.6619 23.9061 51.4535 21.2674C58.7361 23.3784 63.1163 26.5447 63.1163 29.5C63.1163 31.9803 60.0555 34.619 54.8309 36.5716Z" fill="#D12128"/>
</svg>
