<svg width="61" height="61" viewBox="0 0 61 61" fill="none" xmlns="http://www.w3.org/2000/svg">
<g clip-path="url(#clip0_199_47)">
<path d="M30.4772 0.000488281C13.6759 0.000488281 0.000976562 13.6754 0.000976562 30.4767C0.000976562 47.2779 13.6759 60.9528 30.4772 60.9528C47.2784 60.9528 60.9533 47.2779 60.9533 30.4767C60.9533 13.6754 47.2788 0.000488281 30.4772 0.000488281ZM30.4772 5.0897C44.5281 5.0897 55.8646 16.4257 55.8646 30.4767C55.8646 44.5281 44.5281 55.8641 30.4772 55.8641C16.4262 55.8641 5.08971 44.5281 5.08971 30.4767C5.08971 16.4257 16.4262 5.0897 30.4772 5.0897Z" fill="#D12128"/>
<path fill-rule="evenodd" clip-rule="evenodd" d="M23.0613 28.935C29.7351 23.4831 36.2631 17.8415 43.0822 12.5488C39.5056 18.045 35.827 23.4683 32.2504 28.964C29.1828 28.9783 26.1147 28.9783 23.0613 28.935ZM28.7029 31.9735C31.7853 31.9735 34.8529 31.9735 37.9206 32.0174C31.2034 37.4406 24.7045 43.1256 17.8711 48.4035C21.4477 42.9073 25.1263 37.4697 28.7029 31.9735Z" fill="#D12128"/>
</g>
<defs>
<clipPath id="clip0_199_47">
<rect width="61" height="61" fill="white"/>
</clipPath>
</defs>
</svg>
