<svg width="53" height="53" viewBox="0 0 53 53" fill="none" xmlns="http://www.w3.org/2000/svg">
<g clip-path="url(#clip0_199_3)">
<path d="M26.502 10.6006C19.4351 10.6006 15.02 14.1325 13.252 21.1993C15.9011 17.667 18.9938 16.3424 22.5261 17.2256C24.543 17.7283 25.9844 19.1907 27.5806 20.8114C30.1784 23.4477 33.1853 26.4998 39.752 26.4998C46.8183 26.4998 51.2339 22.9674 53.002 15.8989C50.3524 19.4334 47.2602 20.758 43.7274 19.8748C41.7109 19.3717 40.2712 17.9096 38.6729 16.289C36.0767 13.6526 33.0706 10.6006 26.502 10.6006ZM13.252 26.4998C6.18556 26.4998 1.77 30.0321 0.00195312 37.1006C2.65112 33.5661 5.74334 32.2416 9.27613 33.1248C11.293 33.6278 12.7344 35.0899 14.3306 36.7105C16.9284 39.3469 19.9353 42.3989 26.502 42.3989C33.5683 42.3989 37.9839 38.867 39.752 31.8002C37.1024 35.3325 34.0102 36.6571 30.4774 35.7739C28.4609 35.2713 27.0212 33.8088 25.4229 32.1881C22.8267 29.5518 19.8206 26.4998 13.252 26.4998Z" fill="#D12128"/>
</g>
<defs>
<clipPath id="clip0_199_3">
<rect width="53" height="53" fill="white"/>
</clipPath>
</defs>
</svg>
