<svg width="75" height="75" viewBox="0 0 75 75" fill="none" xmlns="http://www.w3.org/2000/svg">
<path d="M9.50321 9.23544C9.40388 9.23722 9.30622 9.26134 9.21749 9.30603C9.12876 9.35071 9.05124 9.41481 8.99067 9.49356C8.93011 9.5723 8.88805 9.66368 8.86764 9.76091C8.84722 9.85813 8.84896 9.95871 8.87274 10.0552L23.1661 67.9118C23.1938 68.0246 23.2508 68.1282 23.3313 68.212C23.4118 68.2958 23.5129 68.3569 23.6245 68.3892C23.7361 68.4215 23.8543 68.4239 23.9671 68.396C24.0799 68.3682 24.1833 68.3111 24.2671 68.2306L67.2667 26.8692C67.3505 26.7887 67.4116 26.6875 67.4438 26.5759C67.4761 26.4643 67.4784 26.3461 67.4505 26.2333C67.4225 26.1205 67.3654 26.0171 67.2848 25.9334C67.2042 25.8497 67.103 25.7887 66.9913 25.7565L9.69715 9.26122C9.63414 9.24306 9.56878 9.23437 9.50321 9.23544ZM10.4313 10.8491L65.5235 26.7104L24.1763 66.4821L10.4313 10.8491Z" fill="#D12128"/>
<path d="M38.1662 17.484C38.0791 17.4822 37.9925 17.4975 37.9114 17.5292C37.8302 17.5608 37.7562 17.6082 37.6934 17.6686L16.2035 38.3551C16.1199 38.4357 16.0589 38.5369 16.0268 38.6485C15.9947 38.7601 15.9925 38.8782 16.0205 38.9909C16.0484 39.1036 16.1056 39.2069 16.1861 39.2906C16.2667 39.3742 16.3679 39.4351 16.4795 39.4672L45.1078 47.7184C45.2193 47.7506 45.3373 47.7528 45.45 47.7249C45.5627 47.6971 45.666 47.6401 45.7497 47.5596C45.8333 47.4792 45.8943 47.3781 45.9266 47.2666C45.9588 47.1552 45.9612 47.0372 45.9334 46.9245L38.7949 17.9868C38.76 17.8455 38.6795 17.7197 38.5659 17.6288C38.4522 17.5379 38.3117 17.487 38.1662 17.484ZM37.7848 19.4176L44.3754 46.1305L17.9473 38.5133L37.7848 19.4176Z" fill="#D12128"/>
<path d="M27.4886 27.7223C27.3892 27.724 27.2916 27.7482 27.2028 27.7928C27.1141 27.8375 27.0366 27.9016 26.976 27.9804C26.9155 28.0591 26.8734 28.1505 26.853 28.2477C26.8326 28.3449 26.8343 28.4455 26.8581 28.542L30.4054 42.9156C30.4331 43.0285 30.4902 43.1321 30.5707 43.2159C30.6513 43.2997 30.7525 43.3609 30.8642 43.3931C30.9759 43.4254 31.0941 43.4277 31.2069 43.3997C31.3198 43.3717 31.4232 43.3145 31.5069 43.2338L42.1839 32.943C42.2675 32.8623 42.3284 32.7611 42.3605 32.6495C42.3926 32.5379 42.3948 32.4198 42.3667 32.307C42.3387 32.1943 42.2815 32.091 42.2008 32.0074C42.1202 31.9238 42.019 31.8629 41.9073 31.8308L27.6825 27.748C27.6195 27.7299 27.5541 27.7212 27.4886 27.7223ZM28.4161 29.3342L40.4407 32.7853L31.4143 41.4842L28.4161 29.3342Z" fill="#D12128"/>
<path d="M23.9655 13.3644C23.8784 13.3626 23.7918 13.378 23.7106 13.4098C23.6295 13.4415 23.5554 13.489 23.4927 13.5495L12.8157 23.8397C12.7321 23.9204 12.6711 24.0216 12.639 24.1332C12.6069 24.2448 12.6048 24.3629 12.6328 24.4757C12.6609 24.5884 12.7181 24.6917 12.7987 24.7753C12.8794 24.8589 12.9806 24.9198 13.0923 24.9519L27.3147 29.0353C27.4263 29.0673 27.5443 29.0695 27.6569 29.0415C27.7695 29.0136 27.8728 28.9565 27.9564 28.876C28.04 28.7955 28.101 28.6944 28.1331 28.5829C28.1653 28.4714 28.1676 28.3534 28.1397 28.2407L24.5942 13.8677C24.5595 13.7262 24.4791 13.6001 24.3654 13.509C24.2517 13.4178 24.1112 13.3674 23.9655 13.3644ZM23.5846 15.2979L26.5811 27.4479L14.5594 23.9968L23.5846 15.2979ZM52.4134 21.5581C52.3263 21.5564 52.2398 21.5718 52.1588 21.6036C52.0777 21.6354 52.0038 21.6828 51.9411 21.7433L41.263 32.0329C41.1792 32.1135 41.1181 32.2148 41.0859 32.3265C41.0538 32.4382 41.0516 32.5564 41.0796 32.6692C41.1077 32.782 41.1649 32.8855 41.2457 32.9691C41.3264 33.0527 41.4278 33.1136 41.5395 33.1456L55.7626 37.2284C55.8741 37.2605 55.9921 37.2627 56.1047 37.2347C56.2174 37.2067 56.3207 37.1496 56.4043 37.0691C56.4879 36.9886 56.5488 36.8876 56.581 36.7761C56.6132 36.6646 56.6154 36.5465 56.5876 36.4339L53.0427 22.0608C53.0078 21.9194 52.9273 21.7933 52.8135 21.7023C52.6997 21.6113 52.559 21.561 52.4134 21.5581ZM52.0325 23.4917L55.029 35.6423L43.0073 32.1911L52.0325 23.4923V23.4917ZM31.0214 42.1075C30.8591 42.1137 30.7047 42.1794 30.5878 42.2921L19.9108 52.5829C19.8272 52.6635 19.7663 52.7647 19.7342 52.8764C19.7021 52.988 19.6999 53.1061 19.728 53.2188C19.756 53.3316 19.8132 53.4349 19.8938 53.5185C19.9745 53.6021 20.0757 53.663 20.1874 53.695L34.4128 57.7778C34.5242 57.8097 34.6421 57.8118 34.7546 57.7838C34.867 57.7558 34.9702 57.6987 35.0537 57.6183C35.1372 57.5379 35.1981 57.437 35.2303 57.3256C35.2625 57.2143 35.2649 57.0964 35.2372 56.9839L31.6893 42.6103C31.6529 42.4624 31.5665 42.3316 31.4448 42.24C31.3231 42.1484 31.1736 42.1016 31.0214 42.1075ZM30.6803 44.0411L33.6792 56.1917L21.6546 52.7405L30.6803 44.0411Z" fill="#D12128"/>
</svg>
